G04 MADE WITH FRITZING*
G04 WWW.FRITZING.ORG*
G04 DOUBLE SIDED*
G04 HOLES PLATED*
G04 CONTOUR ON CENTER OF CONTOUR VECTOR*
%ASAXBY*%
%FSLAX23Y23*%
%MOIN*%
%OFA0B0*%
%SFA1.0B1.0*%
%ADD10C,0.078000*%
%ADD11C,0.074000*%
%ADD12C,0.039370*%
%ADD13C,0.177165*%
%ADD14C,0.024000*%
%LNCOPPER1*%
G90*
G70*
G54D10*
X1398Y3636D03*
X1498Y3636D03*
X1598Y3636D03*
X1698Y3636D03*
X1798Y3636D03*
X1898Y3636D03*
X1998Y3636D03*
X2098Y3636D03*
X2198Y3636D03*
X2298Y3636D03*
X2398Y3636D03*
G54D11*
X1398Y3336D03*
X1398Y3236D03*
X1398Y3136D03*
X1398Y3036D03*
X1398Y2936D03*
X1398Y2836D03*
X1398Y2736D03*
X1398Y2636D03*
X1398Y2536D03*
X1398Y2436D03*
X1398Y2336D03*
X1398Y2236D03*
X1398Y2136D03*
X1398Y2036D03*
X1398Y1936D03*
X1398Y1836D03*
X798Y2936D03*
X798Y2836D03*
X798Y2736D03*
X798Y2636D03*
X798Y2536D03*
X798Y2436D03*
X798Y2336D03*
X798Y2236D03*
X2198Y2036D03*
X2198Y1936D03*
X2198Y1836D03*
X2198Y1736D03*
X2198Y1636D03*
X2198Y1536D03*
X2198Y1436D03*
X2198Y1336D03*
X2198Y1236D03*
X2198Y1136D03*
X2198Y1036D03*
X2198Y936D03*
X2198Y836D03*
X2198Y736D03*
X2198Y636D03*
X2198Y536D03*
X1598Y1636D03*
X1598Y1536D03*
X1598Y1436D03*
X1598Y1336D03*
X1598Y1236D03*
X1598Y1136D03*
X1598Y1036D03*
X1598Y936D03*
X2998Y3336D03*
X2998Y3236D03*
X2998Y3136D03*
X2998Y3036D03*
X2998Y2936D03*
X2998Y2836D03*
X2998Y2736D03*
X2998Y2636D03*
X2998Y2536D03*
X2998Y2436D03*
X2998Y2336D03*
X2998Y2236D03*
X2998Y2136D03*
X2998Y2036D03*
X2998Y1936D03*
X2998Y1836D03*
X2398Y2936D03*
X2398Y2836D03*
X2398Y2736D03*
X2398Y2636D03*
X2398Y2536D03*
X2398Y2436D03*
X2398Y2336D03*
X2398Y2236D03*
G54D12*
X2198Y2836D03*
X1698Y3486D03*
X1698Y3336D03*
X1498Y2836D03*
X1798Y2836D03*
X3298Y3436D03*
X2698Y2836D03*
X2148Y3336D03*
X2598Y3786D03*
X2598Y3336D03*
X2798Y2936D03*
X1998Y1636D03*
X1098Y1936D03*
X448Y2236D03*
X1898Y1636D03*
X998Y2186D03*
X998Y1836D03*
X348Y2236D03*
X1798Y1386D03*
G54D10*
X348Y1536D03*
X348Y1436D03*
X348Y1336D03*
X348Y1236D03*
X348Y1136D03*
X348Y1036D03*
X348Y936D03*
X348Y836D03*
X348Y736D03*
X348Y636D03*
X348Y536D03*
X348Y436D03*
X348Y336D03*
X348Y236D03*
X348Y136D03*
X348Y1536D03*
X348Y1436D03*
X348Y1336D03*
X348Y1236D03*
X348Y1136D03*
X348Y1036D03*
X348Y936D03*
X348Y836D03*
X348Y736D03*
X348Y636D03*
X348Y536D03*
X348Y436D03*
X348Y336D03*
X348Y236D03*
X348Y136D03*
X448Y136D03*
X448Y236D03*
X448Y336D03*
X448Y436D03*
X448Y536D03*
X448Y636D03*
X448Y736D03*
X448Y836D03*
X448Y936D03*
X448Y1036D03*
X448Y1136D03*
X448Y1236D03*
X448Y1336D03*
X448Y1436D03*
X448Y1536D03*
X548Y1536D03*
X548Y1436D03*
X548Y1336D03*
X548Y1236D03*
X548Y1136D03*
X548Y1036D03*
X548Y936D03*
X548Y836D03*
X548Y736D03*
X548Y636D03*
X548Y536D03*
X548Y436D03*
X548Y336D03*
X548Y236D03*
X548Y136D03*
X548Y1536D03*
X548Y1436D03*
X548Y1336D03*
X548Y1236D03*
X548Y1136D03*
X548Y1036D03*
X548Y936D03*
X548Y836D03*
X548Y736D03*
X548Y636D03*
X548Y536D03*
X548Y436D03*
X548Y336D03*
X548Y236D03*
X548Y136D03*
X648Y136D03*
X648Y236D03*
X648Y336D03*
X648Y436D03*
X648Y536D03*
X648Y636D03*
X648Y736D03*
X648Y836D03*
X648Y936D03*
X648Y1036D03*
X648Y1136D03*
X648Y1236D03*
X648Y1336D03*
X648Y1436D03*
X648Y1536D03*
X748Y1536D03*
X748Y1436D03*
X748Y1336D03*
X748Y1236D03*
X748Y1136D03*
X748Y1036D03*
X748Y936D03*
X748Y836D03*
X748Y736D03*
X748Y636D03*
X748Y536D03*
X748Y436D03*
X748Y336D03*
X748Y236D03*
X748Y136D03*
X748Y1536D03*
X748Y1436D03*
X748Y1336D03*
X748Y1236D03*
X748Y1136D03*
X748Y1036D03*
X748Y936D03*
X748Y836D03*
X748Y736D03*
X748Y636D03*
X748Y536D03*
X748Y436D03*
X748Y336D03*
X748Y236D03*
X748Y136D03*
X848Y136D03*
X848Y236D03*
X848Y336D03*
X848Y436D03*
X848Y536D03*
X848Y636D03*
X848Y736D03*
X848Y836D03*
X848Y936D03*
X848Y1036D03*
X848Y1136D03*
X848Y1236D03*
X848Y1336D03*
X848Y1436D03*
X848Y1536D03*
X948Y1536D03*
X948Y1436D03*
X948Y1336D03*
X948Y1236D03*
X948Y1136D03*
X948Y1036D03*
X948Y936D03*
X948Y836D03*
X948Y736D03*
X948Y636D03*
X948Y536D03*
X948Y436D03*
X948Y336D03*
X948Y236D03*
X948Y136D03*
X948Y1536D03*
X948Y1436D03*
X948Y1336D03*
X948Y1236D03*
X948Y1136D03*
X948Y1036D03*
X948Y936D03*
X948Y836D03*
X948Y736D03*
X948Y636D03*
X948Y536D03*
X948Y436D03*
X948Y336D03*
X948Y236D03*
X948Y136D03*
X1048Y136D03*
X1048Y236D03*
X1048Y336D03*
X1048Y436D03*
X1048Y536D03*
X1048Y636D03*
X1048Y736D03*
X1048Y836D03*
X1048Y936D03*
X1048Y1036D03*
X1048Y1136D03*
X1048Y1236D03*
X1048Y1336D03*
X1048Y1436D03*
X1048Y1536D03*
X148Y1536D03*
X148Y1436D03*
X148Y1336D03*
X148Y1236D03*
X148Y1136D03*
X148Y1036D03*
X148Y936D03*
X148Y836D03*
X148Y736D03*
X148Y636D03*
X148Y536D03*
X148Y436D03*
X148Y336D03*
X148Y236D03*
X148Y136D03*
X148Y1536D03*
X148Y1436D03*
X148Y1336D03*
X148Y1236D03*
X148Y1136D03*
X148Y1036D03*
X148Y936D03*
X148Y836D03*
X148Y736D03*
X148Y636D03*
X148Y536D03*
X148Y436D03*
X148Y336D03*
X148Y236D03*
X148Y136D03*
X248Y136D03*
X248Y236D03*
X248Y336D03*
X248Y436D03*
X248Y536D03*
X248Y636D03*
X248Y736D03*
X248Y836D03*
X248Y936D03*
X248Y1036D03*
X248Y1136D03*
X248Y1236D03*
X248Y1336D03*
X248Y1436D03*
X248Y1536D03*
G54D11*
X3798Y2036D03*
X3798Y1936D03*
X3798Y1836D03*
X3798Y1736D03*
X3798Y1636D03*
X3798Y1536D03*
X3798Y1436D03*
X3798Y1336D03*
X3798Y1236D03*
X3798Y1136D03*
X3798Y1036D03*
X3798Y936D03*
X3798Y836D03*
X3798Y736D03*
X3798Y636D03*
X3798Y536D03*
X3198Y1636D03*
X3198Y1536D03*
X3198Y1436D03*
X3198Y1336D03*
X3198Y1236D03*
X3198Y1136D03*
X3198Y1036D03*
X3198Y936D03*
G54D13*
X1298Y636D03*
X198Y1936D03*
G54D10*
X2698Y1036D03*
X2698Y936D03*
X2698Y836D03*
X2698Y736D03*
X2698Y636D03*
X2698Y536D03*
X2698Y436D03*
X2698Y336D03*
X2698Y236D03*
X2698Y136D03*
X2698Y1036D03*
X2698Y936D03*
X2698Y836D03*
X2698Y736D03*
X2698Y636D03*
X2698Y536D03*
X2698Y436D03*
X2698Y336D03*
X2698Y236D03*
X2698Y136D03*
X2798Y136D03*
X2798Y236D03*
X2798Y336D03*
X2798Y436D03*
X2798Y536D03*
X2798Y636D03*
X2798Y736D03*
X2798Y836D03*
X2798Y936D03*
X2798Y1036D03*
X2498Y1536D03*
X2498Y1436D03*
X2498Y1336D03*
X2498Y1236D03*
X2498Y1136D03*
X2498Y1036D03*
X2498Y936D03*
X2498Y836D03*
X2498Y736D03*
X2498Y636D03*
X2498Y536D03*
X2498Y436D03*
X2498Y336D03*
X2498Y236D03*
X2498Y136D03*
X2498Y1536D03*
X2498Y1436D03*
X2498Y1336D03*
X2498Y1236D03*
X2498Y1136D03*
X2498Y1036D03*
X2498Y936D03*
X2498Y836D03*
X2498Y736D03*
X2498Y636D03*
X2498Y536D03*
X2498Y436D03*
X2498Y336D03*
X2498Y236D03*
X2498Y136D03*
X2598Y136D03*
X2598Y236D03*
X2598Y336D03*
X2598Y436D03*
X2598Y536D03*
X2598Y636D03*
X2598Y736D03*
X2598Y836D03*
X2598Y936D03*
X2598Y1036D03*
X2598Y1136D03*
X2598Y1236D03*
X2598Y1336D03*
X2598Y1436D03*
X2598Y1536D03*
X3098Y236D03*
X3198Y236D03*
X3298Y236D03*
X3398Y236D03*
X3498Y236D03*
X3598Y236D03*
X3698Y236D03*
X3798Y236D03*
X3098Y236D03*
X3198Y236D03*
X3298Y236D03*
X3398Y236D03*
X3498Y236D03*
X3598Y236D03*
X3698Y236D03*
X3798Y236D03*
X3798Y136D03*
X3698Y136D03*
X3598Y136D03*
X3498Y136D03*
X3398Y136D03*
X3298Y136D03*
X3198Y136D03*
X3098Y136D03*
X3098Y236D03*
X3198Y236D03*
X3298Y236D03*
X3398Y236D03*
X3498Y236D03*
X3598Y236D03*
X3698Y236D03*
X3798Y236D03*
X3098Y236D03*
X3198Y236D03*
X3298Y236D03*
X3398Y236D03*
X3498Y236D03*
X3598Y236D03*
X3698Y236D03*
X3798Y236D03*
X3798Y136D03*
X3698Y136D03*
X3598Y136D03*
X3498Y136D03*
X3398Y136D03*
X3298Y136D03*
X3198Y136D03*
X3098Y136D03*
X1298Y136D03*
X1398Y136D03*
X1498Y136D03*
X1598Y136D03*
X1698Y136D03*
X1798Y136D03*
X1898Y136D03*
X1998Y136D03*
X2098Y136D03*
X2198Y136D03*
X1298Y136D03*
X1398Y136D03*
X1498Y136D03*
X1598Y136D03*
X1698Y136D03*
X1798Y136D03*
X1898Y136D03*
X1998Y136D03*
X2098Y136D03*
X2198Y136D03*
X2198Y236D03*
X2098Y236D03*
X1998Y236D03*
X1898Y236D03*
X1798Y236D03*
X1698Y236D03*
X1598Y236D03*
X1498Y236D03*
X1398Y236D03*
X1298Y236D03*
X3098Y336D03*
X3198Y336D03*
X3298Y336D03*
X3398Y336D03*
X3498Y336D03*
X3598Y336D03*
X3698Y336D03*
X3798Y336D03*
X3098Y336D03*
X3198Y336D03*
X3298Y336D03*
X3398Y336D03*
X3498Y336D03*
X3598Y336D03*
X3698Y336D03*
X3798Y336D03*
X3498Y3736D03*
X3498Y3636D03*
X3498Y3536D03*
X3498Y3436D03*
X3498Y3336D03*
X3498Y3236D03*
X3498Y3136D03*
X3498Y3036D03*
X3498Y2936D03*
X3498Y2836D03*
X3498Y2736D03*
X3498Y2636D03*
X3498Y2536D03*
X3498Y2436D03*
X3498Y2336D03*
X3498Y3736D03*
X3498Y3636D03*
X3498Y3536D03*
X3498Y3436D03*
X3498Y3336D03*
X3498Y3236D03*
X3498Y3136D03*
X3498Y3036D03*
X3498Y2936D03*
X3498Y2836D03*
X3498Y2736D03*
X3498Y2636D03*
X3498Y2536D03*
X3498Y2436D03*
X3498Y2336D03*
X3598Y2336D03*
X3598Y2436D03*
X3598Y2536D03*
X3598Y2636D03*
X3598Y2736D03*
X3598Y2836D03*
X3598Y2936D03*
X3598Y3036D03*
X3598Y3136D03*
X3598Y3236D03*
X3598Y3336D03*
X3598Y3436D03*
X3598Y3536D03*
X3598Y3636D03*
X3598Y3736D03*
X3698Y3736D03*
X3698Y3636D03*
X3698Y3536D03*
X3698Y3436D03*
X3698Y3336D03*
X3698Y3236D03*
X3698Y3136D03*
X3698Y3036D03*
X3698Y2936D03*
X3698Y2836D03*
X3698Y2736D03*
X3698Y2636D03*
X3698Y2536D03*
X3698Y2436D03*
X3698Y2336D03*
X3698Y3736D03*
X3698Y3636D03*
X3698Y3536D03*
X3698Y3436D03*
X3698Y3336D03*
X3698Y3236D03*
X3698Y3136D03*
X3698Y3036D03*
X3698Y2936D03*
X3698Y2836D03*
X3698Y2736D03*
X3698Y2636D03*
X3698Y2536D03*
X3698Y2436D03*
X3698Y2336D03*
X3798Y2336D03*
X3798Y2436D03*
X3798Y2536D03*
X3798Y2636D03*
X3798Y2736D03*
X3798Y2836D03*
X3798Y2936D03*
X3798Y3036D03*
X3798Y3136D03*
X3798Y3236D03*
X3798Y3336D03*
X3798Y3436D03*
X3798Y3536D03*
X3798Y3636D03*
X3798Y3736D03*
G54D13*
X2998Y586D03*
X448Y3686D03*
X3298Y3736D03*
G54D14*
X2298Y3606D02*
X2298Y2736D01*
D02*
X2298Y2736D02*
X2367Y2736D01*
D02*
X1798Y3606D02*
X1796Y3087D01*
D02*
X1796Y3087D02*
X2250Y2636D01*
D02*
X2250Y2636D02*
X2367Y2636D01*
D02*
X999Y2788D02*
X999Y3285D01*
D02*
X823Y2655D02*
X999Y2788D01*
D02*
X1201Y3439D02*
X1499Y3436D01*
D02*
X999Y3285D02*
X1201Y3439D01*
D02*
X1499Y3436D02*
X1796Y3087D01*
D02*
X1698Y3666D02*
X1699Y3736D01*
D02*
X1699Y3736D02*
X2498Y3736D01*
D02*
X2498Y3736D02*
X2497Y2537D01*
D02*
X2497Y2537D02*
X2449Y2537D01*
D02*
X2449Y2537D02*
X2429Y2537D01*
D02*
X767Y2536D02*
X648Y2536D01*
D02*
X648Y2536D02*
X648Y3137D01*
D02*
X648Y3137D02*
X1048Y3537D01*
D02*
X1048Y3537D02*
X1597Y3536D01*
D02*
X1597Y3536D02*
X1677Y3615D01*
D02*
X3173Y1253D02*
X3049Y1337D01*
D02*
X2797Y1688D02*
X2699Y1788D01*
D02*
X3049Y1688D02*
X2797Y1688D01*
D02*
X3049Y1337D02*
X3049Y1688D01*
D02*
X2699Y1788D02*
X2697Y2537D01*
D02*
X2697Y2537D02*
X2429Y2536D01*
D02*
X1629Y1236D02*
X1800Y1237D01*
D02*
X1800Y1237D02*
X2097Y435D01*
D02*
X2097Y435D02*
X2300Y435D01*
D02*
X2299Y1687D02*
X2398Y1786D01*
D02*
X2398Y1786D02*
X2699Y1788D01*
D02*
X2300Y435D02*
X2299Y1687D01*
D02*
X1898Y3606D02*
X1898Y3137D01*
D02*
X1898Y3137D02*
X2185Y2849D01*
D02*
X1698Y3467D02*
X1698Y3355D01*
D02*
X1516Y2842D02*
X1499Y2836D01*
D02*
X1499Y2836D02*
X1779Y2836D01*
D02*
X3197Y3537D02*
X2698Y3536D01*
D02*
X3285Y3449D02*
X3197Y3537D01*
D02*
X2698Y3536D02*
X2698Y2855D01*
D02*
X1499Y1536D02*
X1499Y2836D01*
D02*
X1567Y1536D02*
X1499Y1536D01*
D02*
X1998Y3334D02*
X1998Y3606D01*
D02*
X2129Y3336D02*
X1998Y3334D01*
D02*
X2598Y3767D02*
X2598Y3355D01*
D02*
X3198Y1667D02*
X3199Y3439D01*
D02*
X3199Y3439D02*
X2802Y3439D01*
D02*
X2802Y3439D02*
X2798Y2955D01*
D02*
X767Y2236D02*
X647Y2235D01*
D02*
X647Y2235D02*
X549Y2385D01*
D02*
X549Y2385D02*
X550Y3137D01*
D02*
X550Y3137D02*
X999Y3635D01*
D02*
X999Y3635D02*
X1368Y3636D01*
D02*
X1347Y1037D02*
X1199Y1735D01*
D02*
X1199Y1735D02*
X797Y1736D01*
D02*
X1569Y948D02*
X1347Y1037D01*
D02*
X797Y1736D02*
X798Y2205D01*
D02*
X2367Y2236D02*
X2000Y2239D01*
D02*
X2000Y2239D02*
X1998Y1655D01*
D02*
X829Y2336D02*
X1247Y2336D01*
D02*
X1247Y2336D02*
X1247Y1936D01*
D02*
X1247Y1936D02*
X1117Y1936D01*
D02*
X448Y2255D02*
X448Y3137D01*
D02*
X448Y3137D02*
X950Y3734D01*
D02*
X950Y3734D02*
X1499Y3736D01*
D02*
X1499Y3736D02*
X1498Y3666D01*
D02*
X1571Y1050D02*
X1398Y1136D01*
D02*
X1398Y1136D02*
X1247Y1936D01*
D02*
X2367Y2336D02*
X1897Y2335D01*
D02*
X1897Y2335D02*
X1898Y1655D01*
D02*
X2450Y1688D02*
X2349Y1585D01*
D02*
X2650Y1688D02*
X2450Y1688D01*
D02*
X2750Y1584D02*
X2650Y1688D01*
D02*
X2949Y1237D02*
X2947Y1585D01*
D02*
X3174Y1056D02*
X2949Y1237D01*
D02*
X2349Y1585D02*
X2349Y386D01*
D02*
X2947Y1585D02*
X2750Y1584D01*
D02*
X2349Y386D02*
X2050Y386D01*
D02*
X2050Y386D02*
X1797Y1033D01*
D02*
X1797Y1033D02*
X1629Y1036D01*
D02*
X998Y2167D02*
X998Y1855D01*
D02*
X348Y2255D02*
X350Y3137D01*
D02*
X350Y3137D02*
X898Y3835D01*
D02*
X898Y3835D02*
X1598Y3835D01*
D02*
X1598Y3835D02*
X1598Y3666D01*
D02*
X2367Y2436D02*
X1796Y2435D01*
D02*
X1796Y2435D02*
X1798Y1405D01*
G04 End of Copper1*
M02*