; NON-PLATED HOLES START AT T1
; THROUGH (PLATED) HOLES START AT T100
M48
INCH
T100C0.038000
T101C0.040000
T102C0.015748
T103C0.137795
%
T100
X001483Y007360
X036983Y023360
X037983Y029360
X007483Y011360
X002483Y012360
X037983Y027360
X036983Y001360
X010483Y003360
X006483Y003360
X025983Y001360
X005483Y002360
X003483Y009360
X006483Y007360
X031983Y002360
X036983Y024360
X024983Y013360
X034983Y026360
X010483Y004360
X009483Y013360
X027983Y008360
X035983Y001360
X002483Y006360
X004483Y011360
X034983Y030360
X031983Y001360
X002483Y005360
X036983Y030360
X024983Y005360
X004483Y008360
X024983Y014360
X036983Y034360
X008483Y003360
X003483Y005360
X024983Y012360
X030983Y002360
X005483Y008360
X003483Y015360
X018983Y036360
X025983Y013360
X002483Y001360
X001483Y011360
X034983Y024360
X002483Y007360
X009483Y007360
X037983Y025360
X003483Y012360
X012983Y001360
X002483Y015360
X008483Y012360
X034983Y003360
X027983Y004360
X008483Y008360
X036983Y029360
X035983Y028360
X019983Y002360
X034983Y023360
X008483Y004360
X024983Y011360
X001483Y008360
X008483Y006360
X035983Y025360
X015983Y002360
X007483Y014360
X001483Y012360
X009483Y005360
X003483Y013360
X001483Y001360
X035983Y037360
X004483Y003360
X034983Y028360
X003483Y002360
X036983Y025360
X010483Y011360
X004483Y007360
X037983Y032360
X037983Y030360
X027983Y001360
X037983Y034360
X003483Y011360
X025983Y012360
X035983Y031360
X007483Y006360
X035983Y035360
X006483Y002360
X035983Y029360
X036983Y036360
X006483Y001360
X008483Y015360
X004483Y006360
X034983Y036360
X001483Y003360
X009483Y001360
X025983Y010360
X004483Y013360
X006483Y015360
X008483Y011360
X034983Y033360
X027983Y007360
X005483Y005360
X021983Y036360
X016983Y036360
X035983Y002360
X027983Y003360
X006483Y010360
X004483Y012360
X001483Y015360
X010483Y014360
X001483Y010360
X004483Y010360
X037983Y002360
X036983Y037360
X014983Y001360
X006483Y006360
X005483Y015360
X037983Y035360
X037983Y001360
X003483Y001360
X003483Y008360
X002483Y011360
X025983Y015360
X009483Y002360
X036983Y028360
X035983Y032360
X001483Y002360
X009483Y015360
X035983Y026360
X035983Y023360
X003483Y007360
X037983Y024360
X024983Y009360
X001483Y004360
X037983Y033360
X005483Y009360
X037983Y023360
X020983Y002360
X013983Y002360
X001483Y005360
X026983Y004360
X002483Y004360
X004483Y002360
X003483Y014360
X010483Y008360
X007483Y013360
X013983Y001360
X025983Y007360
X007483Y005360
X026983Y007360
X024983Y001360
X006483Y004360
X021983Y001360
X004483Y001360
X026983Y001360
X030983Y003360
X006483Y012360
X002483Y002360
X026983Y003360
X010483Y005360
X005483Y010360
X023983Y036360
X027983Y009360
X037983Y003360
X007483Y008360
X015983Y001360
X037983Y028360
X007483Y015360
X001483Y014360
X037983Y031360
X024983Y010360
X001483Y013360
X008483Y014360
X009483Y004360
X036983Y031360
X004483Y004360
X008483Y013360
X005483Y004360
X010483Y013360
X025983Y008360
X014983Y002360
X016983Y002360
X002483Y003360
X025983Y002360
X003483Y006360
X025983Y006360
X007483Y003360
X035983Y024360
X026983Y009360
X036983Y032360
X025983Y003360
X004483Y015360
X036983Y026360
X009483Y008360
X032983Y003360
X034983Y035360
X026983Y010360
X034983Y037360
X009483Y011360
X007483Y010360
X034983Y027360
X004483Y009360
X034983Y001360
X008483Y002360
X034983Y025360
X032983Y002360
X035983Y030360
X027983Y005360
X003483Y004360
X033983Y003360
X027983Y010360
X001483Y009360
X017983Y001360
X006483Y009360
X009483Y012360
X002483Y014360
X017983Y002360
X008483Y007360
X003483Y010360
X005483Y013360
X008483Y005360
X036983Y027360
X005483Y007360
X024983Y003360
X002483Y013360
X002483Y010360
X010483Y012360
X030983Y001360
X006483Y014360
X010483Y015360
X026983Y006360
X025983Y005360
X006483Y005360
X022983Y036360
X034983Y002360
X035983Y003360
X006483Y011360
X035983Y036360
X010483Y006360
X034983Y031360
X024983Y004360
X010483Y002360
X036983Y033360
X008483Y010360
X014983Y036360
X016983Y001360
X010483Y009360
X009483Y009360
X035983Y033360
X035983Y034360
X024983Y002360
X027983Y002360
X019983Y036360
X026983Y005360
X013983Y036360
X036983Y035360
X035983Y027360
X010483Y010360
X036983Y002360
X024983Y007360
X007483Y007360
X006483Y008360
X026983Y008360
X034983Y029360
X007483Y012360
X007483Y001360
X025983Y009360
X025983Y011360
X032983Y001360
X008483Y001360
X009483Y006360
X005483Y006360
X008483Y009360
X009483Y003360
X005483Y012360
X002483Y008360
X018983Y002360
X024983Y008360
X036983Y003360
X009483Y014360
X007483Y009360
X004483Y014360
X024983Y006360
X005483Y001360
X025983Y004360
X002483Y009360
X037983Y036360
X027983Y006360
X007483Y004360
X021983Y002360
X018983Y001360
X015983Y036360
X033983Y002360
X001483Y006360
X034983Y032360
X033983Y001360
X004483Y005360
X026983Y002360
X017983Y036360
X034983Y034360
X010483Y007360
X005483Y011360
X031983Y003360
X025983Y014360
X024983Y015360
X003483Y003360
X012983Y002360
X005483Y003360
X019983Y001360
X010483Y001360
X020983Y036360
X037983Y026360
X007483Y002360
X005483Y014360
X009483Y010360
X037983Y037360
X020983Y001360
X006483Y013360
T101
X023983Y022360
X013983Y022360
X029983Y031360
X007983Y027360
X013983Y031360
X015983Y014360
X013983Y023360
X015983Y010360
X031983Y012360
X013983Y026360
X031983Y009360
X021983Y012360
X029983Y032360
X023983Y027360
X037983Y016360
X031983Y015360
X015983Y013360
X031983Y016360
X029983Y023360
X013983Y032360
X037983Y009360
X013983Y019360
X031983Y011360
X021983Y010360
X037983Y017360
X021983Y020360
X013983Y027360
X007983Y028360
X021983Y008360
X029983Y026360
X021983Y016360
X023983Y028360
X013983Y033360
X021983Y009360
X013983Y018360
X013983Y020360
X021983Y017360
X013983Y025360
X037983Y020360
X029983Y033360
X015983Y012360
X031983Y010360
X029983Y021360
X013983Y030360
X037983Y013360
X037983Y014360
X021983Y006360
X037983Y010360
X021983Y018360
X029983Y030360
X021983Y005360
X031983Y013360
X029983Y018360
X023983Y023360
X037983Y012360
X021983Y011360
X021983Y015360
X029983Y024360
X013983Y021360
X029983Y020360
X037983Y005360
X015983Y009360
X021983Y019360
X023983Y029360
X015983Y011360
X007983Y022360
X021983Y007360
X013983Y028360
X029983Y025360
X023983Y025360
X013983Y024360
X037983Y011360
X037983Y019360
X023983Y026360
X029983Y028360
X013983Y029360
X037983Y018360
X029983Y022360
X007983Y029360
X007983Y026360
X029983Y027360
X007983Y025360
X031983Y014360
X037983Y008360
X029983Y019360
X021983Y013360
X023983Y024360
X007983Y024360
X037983Y007360
X015983Y015360
X029983Y029360
X037983Y015360
X037983Y006360
X007983Y023360
X021983Y014360
X015983Y016360
T102
X021483Y033360
X021983Y028360
X014983Y028360
X009983Y018360
X010983Y019360
X004483Y022360
X018983Y016360
X032983Y034360
X027983Y029360
X003483Y022360
X026983Y028360
X017983Y028360
X019983Y016360
X009983Y021860
X016983Y033360
X017983Y013860
X025983Y037860
X016983Y034860
X025983Y033360
T103
X004483Y036860
X012983Y006360
X029983Y005860
X032983Y037360
X001983Y019360
T00
M30
